<?xml version="1.0" encoding="utf-8"?>
<!-- Generator: Adobe Illustrator 25.2.0, SVG Export Plug-In . SVG Version: 6.00 Build 0)  -->
<svg version="1.1" id="Layer_1" xmlns="http://www.w3.org/2000/svg" xmlns:xlink="http://www.w3.org/1999/xlink" x="0px" y="0px"
	 viewBox="0 0 200 200" style="enable-background:new 0 0 200 200;" xml:space="preserve">
<style type="text/css">
	.st0{fill:#1E50DA;}
	.st1{fill:#FFFFFF;}
</style>
<circle class="st0" cx="100" cy="100" r="98.3"/>
<path class="st1" d="M142.4,46.6H57.6c-5.8,0-10.6,4.8-10.6,10.6v63.6c0,5.8,4.8,10.6,10.6,10.6h15.9v20l33.3-20h35.6
	c5.8,0,10.6-4.8,10.6-10.6V57.2C153,51.4,148.2,46.6,142.4,46.6z M142.4,120.8h-38.6l-19.7,11.8v-11.8H57.6V57.2h84.8V120.8z"/>
<path class="st1" d="M73.5,73.1h53v10.6h-53V73.1z M73.5,94.3h37.1v10.6H73.5V94.3z"/>
</svg>
